<svg version="1.1" id="Layer_1" xmlns="http://www.w3.org/2000/svg" xmlns:xlink="http://www.w3.org/1999/xlink" x="0px" y="0px"
	 width="100%" viewBox="0 0 984 974" enable-background="new 0 0 984 974" xml:space="preserve">
<path fill="#000000" opacity="1.000000" stroke="none" 
	d="
M630.000000,975.000000 
	C420.000000,975.000000 210.500000,975.000000 1.000000,975.000000 
	C1.000000,650.333313 1.000000,325.666656 1.000000,1.000000 
	C329.000000,1.000000 657.000000,1.000000 985.000000,1.000000 
	C985.000000,325.666656 985.000000,650.333313 985.000000,975.000000 
	C866.833313,975.000000 748.666687,975.000000 630.000000,975.000000 
M333.817322,230.500122 
	C333.817322,211.926010 333.817322,193.351913 333.817322,175.052475 
	C388.384705,175.052475 442.105042,175.052475 496.277649,175.052475 
	C496.277649,298.719421 496.277649,421.793884 496.277649,544.777954 
	C503.171021,544.777954 509.601379,544.777954 516.008362,544.777954 
	C516.008362,414.537018 516.008362,284.633575 516.008362,154.663254 
	C448.191345,154.663254 380.799896,154.663254 313.367310,154.663254 
	C313.367310,316.985657 313.367310,478.898895 313.367310,641.277954 
	C341.877167,641.277954 370.126801,641.277954 398.987671,641.277954 
	C398.987671,696.448792 398.987671,751.158447 398.987671,805.765503 
	C499.345398,805.765503 599.085938,805.765503 698.685730,805.765503 
	C698.685730,744.031006 698.685730,682.650574 698.685730,620.943848 
	C605.391418,620.943848 512.614319,620.943848 419.143005,620.943848 
	C419.143005,505.413177 419.143005,390.209412 419.143005,275.124512 
	C412.169067,275.124512 405.895416,275.124512 398.984558,275.124512 
	C398.984558,390.503601 398.984558,505.550446 398.984558,620.817749 
	C376.967529,620.817749 355.598145,620.817749 333.817383,620.817749 
	C333.817383,490.772217 333.817383,361.136169 333.817322,230.500122 
z"/>
<path fill="#FCFCFC" opacity="1.000000" stroke="none" 
	d="
M333.817352,231.000122 
	C333.817383,361.136169 333.817383,490.772217 333.817383,620.817749 
	C355.598145,620.817749 376.967529,620.817749 398.984558,620.817749 
	C398.984558,505.550446 398.984558,390.503601 398.984558,275.124512 
	C405.895416,275.124512 412.169067,275.124512 419.143005,275.124512 
	C419.143005,390.209412 419.143005,505.413177 419.143005,620.943848 
	C512.614319,620.943848 605.391418,620.943848 698.685730,620.943848 
	C698.685730,682.650574 698.685730,744.031006 698.685730,805.765503 
	C599.085938,805.765503 499.345398,805.765503 398.987671,805.765503 
	C398.987671,751.158447 398.987671,696.448792 398.987671,641.277954 
	C370.126801,641.277954 341.877167,641.277954 313.367310,641.277954 
	C313.367310,478.898895 313.367310,316.985657 313.367310,154.663254 
	C380.799896,154.663254 448.191345,154.663254 516.008362,154.663254 
	C516.008362,284.633575 516.008362,414.537018 516.008362,544.777954 
	C509.601379,544.777954 503.171021,544.777954 496.277649,544.777954 
	C496.277649,421.793884 496.277649,298.719421 496.277649,175.052475 
	C442.105042,175.052475 388.384705,175.052475 333.817322,175.052475 
	C333.817322,193.351913 333.817322,211.926010 333.817352,231.000122 
M481.499908,785.858582 
	C546.932861,785.858582 612.365845,785.858582 678.146240,785.858582 
	C678.146240,737.428955 678.146240,689.447388 678.146240,641.588379 
	C591.578430,641.588379 505.568085,641.588379 419.148132,641.588379 
	C419.148132,645.004272 419.145569,647.983521 419.148590,650.962830 
	C419.168091,670.284424 419.184204,689.606018 419.210327,708.927612 
	C419.242554,732.747070 419.333313,756.566650 419.273376,780.385864 
	C419.262909,784.547729 420.518158,786.144287 425.034821,786.070923 
	C443.519562,785.770813 462.010986,785.884338 481.499908,785.858582 
z"/>
<path fill="#020202" opacity="1.000000" stroke="none" 
	d="
M480.999939,785.852112 
	C462.010986,785.884338 443.519562,785.770813 425.034821,786.070923 
	C420.518158,786.144287 419.262909,784.547729 419.273376,780.385864 
	C419.333313,756.566650 419.242554,732.747070 419.210327,708.927612 
	C419.184204,689.606018 419.168091,670.284424 419.148590,650.962830 
	C419.145569,647.983521 419.148132,645.004272 419.148132,641.588379 
	C505.568085,641.588379 591.578430,641.588379 678.146240,641.588379 
	C678.146240,689.447388 678.146240,737.428955 678.146240,785.858582 
	C612.365845,785.858582 546.932861,785.858582 480.999939,785.852112 
z"/>
</svg>